<?xml version="1.0" encoding="utf-8"?>
<!-- Generator: Adobe Illustrator 24.3.0, SVG Export Plug-In . SVG Version: 6.00 Build 0)  -->
<svg version="1.1" id="Слой_1" xmlns="http://www.w3.org/2000/svg" xmlns:xlink="http://www.w3.org/1999/xlink" x="0px" y="0px"
	 viewBox="0 0 16 16" style="enable-background:new 0 0 16 16;" xml:space="preserve">
<style type="text/css">
	.st0{fill:#FFFFFF;}
	.st1{fill:#FCA311;}
</style>
<rect x="3.5" y="3.1" class="st0" width="8" height="9.8"/>
<path class="st1" d="M8,15.5c4.1,0,7.5-3.4,7.5-7.5S12.1,0.5,8,0.5S0.5,3.9,0.5,8S3.9,15.5,8,15.5z M8.9,6.7l-0.9,4.4
	c-0.1,0.3,0,0.5,0.3,0.5c0.2,0,0.5-0.1,0.6-0.2l-0.1,0.4c-0.3,0.3-0.9,0.6-1.4,0.6c-0.7,0-0.9-0.4-0.8-1.2l0.7-3.3
	c0.1-0.3,0-0.4-0.3-0.4L6.6,7.3l0.1-0.4L8.9,6.7L8.9,6.7z M8,5.7c-0.5,0-0.9-0.4-0.9-0.9S7.5,3.8,8,3.8s0.9,0.4,0.9,0.9
	S8.5,5.7,8,5.7z"/>
</svg>
