<?xml version="1.0" encoding="utf-8"?>
<!-- Generator: Adobe Illustrator 24.3.0, SVG Export Plug-In . SVG Version: 6.00 Build 0)  -->
<svg version="1.1" id="Слой_1" xmlns="http://www.w3.org/2000/svg" xmlns:xlink="http://www.w3.org/1999/xlink" x="0px" y="0px"
	 viewBox="0 0 16 16" style="enable-background:new 0 0 16 16;" xml:space="preserve">
<style type="text/css">
	.st0{opacity:0.5;}
</style>
<path class="st0" d="M8,1c1.3,0,2.3,0.9,2.3,2v4H5.7V3C5.7,1.9,6.7,1,8,1z M11.4,7V3c0-1.7-1.5-3-3.4-3S4.6,1.3,4.6,3v4
	C3.3,7,2.3,7.9,2.3,9v5c0,1.1,1,2,2.3,2h6.9c1.3,0,2.3-0.9,2.3-2V9C13.7,7.9,12.7,7,11.4,7z"/>
</svg>
