<?xml version="1.0" encoding="utf-8"?>
<!-- Generator: Adobe Illustrator 24.3.0, SVG Export Plug-In . SVG Version: 6.00 Build 0)  -->
<svg version="1.1" id="Слой_1" xmlns="http://www.w3.org/2000/svg" xmlns:xlink="http://www.w3.org/1999/xlink" x="0px" y="0px"
	 viewBox="0 0 16 16" style="enable-background:new 0 0 16 16;" xml:space="preserve">
<style type="text/css">
	.st0{fill:#FFFFFF;}
	.st1{fill:#FCA311;}
</style>
<rect x="6" y="4.5" class="st0" width="3.9" height="8.3"/>
<path class="st1" d="M8.9,2C8.6,1.5,8,1.3,7.5,1.6C7.3,1.7,7.2,1.8,7.1,2L0.7,12.9c-0.4,0.7,0.1,1.7,0.9,1.7h12.9
	c0.8,0,1.3-0.9,0.9-1.7L8.9,2z M8,5.2c0.5,0,0.9,0.4,0.8,0.9L8.5,9.4c0,0.3-0.3,0.5-0.6,0.5c-0.3,0-0.5-0.2-0.5-0.5L7.2,6.1
	C7.1,5.7,7.5,5.2,8,5.2C7.9,5.2,8,5.2,8,5.2z M8,10.8c0.5,0,0.9,0.4,0.9,0.9c0,0.5-0.4,0.9-0.9,0.9c-0.5,0-0.9-0.4-0.9-0.9
	C7.1,11.2,7.5,10.8,8,10.8z"/>
</svg>
