<?xml version="1.0" encoding="utf-8"?>
<!-- Generator: Adobe Illustrator 24.3.0, SVG Export Plug-In . SVG Version: 6.00 Build 0)  -->
<svg version="1.1" id="Слой_1" xmlns="http://www.w3.org/2000/svg" xmlns:xlink="http://www.w3.org/1999/xlink" x="0px" y="0px"
	 viewBox="0 0 16 16" style="enable-background:new 0 0 16 16;" xml:space="preserve">
<style type="text/css">
	.st0{fill:#FCA311;}
	.st1{display:none;}
	.st2{display:inline;fill:#FC8312;}
</style>
<path class="st0" d="M12.4,14.6c1.3,0,2.2-1.1,2.2-2.3v-7H1.4v7c0,1.3,1,2.3,2.2,2.3C3.6,14.6,12.4,14.6,12.4,14.6z M5.7,7.1h4.7
	c0.3,0,0.5,0.2,0.5,0.5S10.6,8,10.3,8H5.7C5.4,8,5.2,7.8,5.2,7.5S5.4,7.1,5.7,7.1z M1.2,1.4c-0.4,0-0.7,0.3-0.8,0.8v1.1
	c0,0.4,0.3,0.8,0.8,0.8h13.5c0.4,0,0.8-0.3,0.8-0.8l0,0V2.2c0-0.4-0.3-0.8-0.8-0.8l0,0C14.8,1.4,1.2,1.4,1.2,1.4z"/>
<g class="st1">
	<path class="st2" d="M6,12.1h0.1c0.1,0,0.1,0,0.1-0.1v-1.5h0.4V12c0,0.4-0.2,0.6-0.6,0.6H5.4c-0.4,0-0.6-0.2-0.6-0.6v-1.5h0.4V12
		c0,0.1,0,0.1,0.1,0.1h0.1v-1.6H6V12.1z"/>
	<path class="st2" d="M7.5,10.5v0.4v1.2v0.4v0H7v-2.1H7.5z"/>
	<path class="st2" d="M8.5,10.9H8.4c-0.1,0-0.1,0-0.1,0.1v1.5H7.8v-1.5c0-0.4,0.2-0.6,0.6-0.6h0.7c0.4,0,0.6,0.2,0.6,0.6v1.5H9.2
		v-1.5c0-0.1,0-0.1-0.1-0.1H9v1.6H8.5V10.9z"/>
	<path class="st2" d="M10,10.5h0.6c0.4,0,0.6,0.2,0.6,0.6c0,0.3,0,0.4-0.1,0.4c0.1,0,0.1,0.2,0.1,0.4c0,0.4-0.2,0.6-0.6,0.6H10V10.5
		z M10.6,11.3c0.1,0,0.1,0,0.1-0.1v-0.1c0-0.1,0-0.1-0.1-0.1h-0.1v0.4H10.6z M10.6,11.8h-0.1v0.4h0.1c0.1,0,0.1,0,0.1-0.1v-0.1
		C10.7,11.8,10.7,11.8,10.6,11.8z"/>
</g>
</svg>
